# xmcd CD database file
#
# Track frame offsets:
#	150
#	11365
#	22887
#	31627
#	41867
#	53147
#	63432
#	79727
#	91305
#	101390
#	111527
#	122182
#	133587
#	146892
#	160895
#	172755
#	181120
#	191602
#	204092
#	213197
#	222777
#	235955
#	246020
#	257902
#	271070
#	280290
#
# Disc length: 3869 seconds
#
# Revision: 1
# Processed by: cddbd v1.5.1PL0 Copyright (c) Steve Scherf et al.
# Submitted via: CDex 1.51
#
DISCID=640f1b1a
DTITLE=Various Artist - Best of British Rockabillies
DYEAR=1991
DGENRE=Neo-Rockabilly
TTITLE0=Steve Bloomfield/Hurricane
TTITLE1=Flying Saucers/Let's Rock the Town
TTITLE2=Crazy Cavan 'N' Rythm Rockers/She's The One To Blame
TTITLE3=Freddie 'Fingers' Lee/I'm Down
TTITLE4=Matchbox/All The Boys
TTITLE5=Little Tina and Flight '56/My Boy Elvis
TTITLE6=The Riot Rockers/Road Of Steel
TTITLE7=Flying Saucers/Cat Talkin'
TTITLE8=Crazy Cavon 'N' The Rhythm Rockers/Bop Little Baby
TTITLE9=Steve Bloomfield/Rockin'Rhythm
TTITLE10=Little Tina and Flight '56/This Little Girl's Rockin
TTITLE11=The Riot Rockers/ It's Saturday Night
TTITLE12=Freddie 'Fingers' Lee/Dib Dab Boogie
TTITLE13=Matchbox/Only Wanna Rock
TTITLE14=Ray Neale and The All Stars/Doin' The Boogie
TTITLE15=The Blue Cats/Tired and Sleepy
TTITLE16=Shotgun/I'm On The Wagon (Because Of The Dragon)
TTITLE17=Dave Phillips and Hot Rod Gang/Tainted Love
TTITLE18=Blue Cat Trio/I'm Drivin Home
TTITLE19=The Hot Rod Gang/Love Me
TTITLE20=The Blue Cats/Everybody's Moving
TTITLE21=Shotgun/Hot Rock
TTITLE22=Blue Cat Trio/I'm Gonna Die
TTITLE23=The Blue Cats/Wild Night
TTITLE24=Dave Phillips and The Hot Rod Gang/Wild Youth
TTITLE25=Ray Neale and The All Stars/Tet It On Mo
EXTD=YEAR: 1991
EXTT0=
EXTT1=
EXTT2=
EXTT3=
EXTT4=
EXTT5=
EXTT6=
EXTT7=
EXTT8=
EXTT9=
EXTT10=
EXTT11=
EXTT12=
EXTT13=
EXTT14=
EXTT15=
EXTT16=
EXTT17=
EXTT18=
EXTT19=
EXTT20=
EXTT21=
EXTT22=
EXTT23=
EXTT24=
EXTT25=
PLAYORDER=
